# xmcd
#
# Track frame offsets:
#	150
#	13355
#	24618
#	37476
#	50762
#	63771
#	76195
#	88617
#	101058
#	112640
#	126929
#	138074
#	150607
#	162082
#
# Disc length: 2354 seconds
#
# Revision: 2
# Processed by: cddbd v1.5.1PL0 Copyright (c) Steve Scherf et al.
# Submitted via: audiograbber 1.83.01
#
DISCID=b009300e
DTITLE=Luiz Gonzaga - O Rei do Baião
DYEAR=1900
DGENRE=FORRÓ
TTITLE0=VIRA E MEXE-1941
TTITLE1=DANÇA, MARIQUINHA-1945
TTITLE2=OVO AZUL-1945
TTITLE3=PERPÉTUA-1945
TTITLE4=ASA BRANCA-1947
TTITLE5=BAIÃO-1949
TTITLE6=GATO ANGORÁ-1950
TTITLE7=A VOLTA DA ASA BRANCA-1950
TTITLE8=BAIÃO DO GRANFINO-1951
TTITLE9=CARTÃO DE NATAL-1954
TTITLE10=MINHA FULÔ
TTITLE11=MANÉ E ZABÉ-1956
TTITLE12=SERINGUEIRO MEU IRMÃO
TTITLE13=GONZAGA-CYLENE ARAÚJO
EXTD=
EXTT0=
EXTT1=
EXTT2=
EXTT3=
EXTT4=
EXTT5=
EXTT6=
EXTT7=
EXTT8=
EXTT9=
EXTT10=
EXTT11=
EXTT12=
EXTT13=
PLAYORDER=
